<svg xmlns="http://www.w3.org/2000/svg" viewBox="0 0 32 32" width="32" height="32">
  <defs>
    <linearGradient id="sparkGradient" x1="0%" y1="0%" x2="100%" y2="100%">
      <stop offset="0%" style="stop-color:#667eea;stop-opacity:1" />
      <stop offset="100%" style="stop-color:#764ba2;stop-opacity:1" />
    </linearGradient>
  </defs>
  
  <!-- 机器人头部 -->
  <rect x="8" y="10" width="16" height="14" rx="3" fill="url(#sparkGradient)"/>
  
  <!-- 眼睛 -->
  <circle cx="12" cy="16" r="2" fill="white"/>
  <circle cx="20" cy="16" r="2" fill="white"/>
  <circle cx="12" cy="16" r="1" fill="#333"/>
  <circle cx="20" cy="16" r="1" fill="#333"/>
  
  <!-- 嘴巴 -->
  <path d="M 14 20 Q 16 22 18 20" stroke="white" stroke-width="1.5" fill="none" stroke-linecap="round"/>
  
  <!-- 天线 -->
  <line x1="16" y1="10" x2="16" y2="6" stroke="url(#sparkGradient)" stroke-width="2" stroke-linecap="round"/>
  <circle cx="16" cy="6" r="1.5" fill="#667eea"/>
  
  <!-- 火花效果 -->
  <g fill="#ffd700" opacity="0.8">
    <polygon points="6,8 7,6 8,8 7,9" />
    <polygon points="24,12 25,10 26,12 25,13" />
    <polygon points="4,18 5,16 6,18 5,19" />
    <polygon points="26,20 27,18 28,20 27,21" />
  </g>
</svg>